<svg width="307" height="229" viewBox="0 0 307 229" fill="none" xmlns="http://www.w3.org/2000/svg">
<path d="M306.919 200.971H0V201.124H306.919V200.971Z" fill="#E6E6E6"/>
<path d="M273.514 204.918H259.242V205.071H273.514V204.918Z" fill="#E6E6E6"/>
<path d="M221.596 208.25H153.81V208.403H221.596V208.25Z" fill="#E6E6E6"/>
<path d="M124.812 208.33H118.164V208.484H124.812V208.33Z" fill="#E6E6E6"/>
<path d="M70.9352 206.49H47.8794V206.644H70.9352V206.49Z" fill="#E6E6E6"/>
<path d="M253.3 204.918H239.808V205.071H253.3V204.918Z" fill="#E6E6E6"/>
<path d="M42.8704 206.49H31.7047V206.644H42.8704V206.49Z" fill="#E6E6E6"/>
<path d="M145.48 173.593H26.9536C26.0251 173.592 25.1351 173.222 24.4791 172.565C23.8231 171.908 23.4547 171.017 23.4547 170.088V3.47433C23.4628 2.55113 23.8348 1.6684 24.4899 1.01788C25.145 0.367357 26.0304 0.00158149 26.9536 0H145.48C146.409 0 147.301 0.369278 147.958 1.0266C148.615 1.68391 148.985 2.57543 148.985 3.50502V170.088C148.985 171.018 148.615 171.91 147.958 172.567C147.301 173.224 146.409 173.593 145.48 173.593ZM26.9536 0.122768C26.0658 0.124394 25.2149 0.47822 24.5876 1.10658C23.9604 1.73495 23.6082 2.5865 23.6082 3.47433V170.088C23.6082 170.976 23.9604 171.828 24.5876 172.456C25.2149 173.085 26.0658 173.438 26.9536 173.44H145.48C146.368 173.438 147.22 173.085 147.848 172.457C148.476 171.828 148.83 170.977 148.831 170.088V3.47433C148.83 2.58594 148.476 1.7344 147.848 1.10621C147.22 0.478021 146.368 0.124391 145.48 0.122768H26.9536Z" fill="#E6E6E6"/>
<path d="M278.259 173.593H159.727C158.798 173.592 157.907 173.222 157.25 172.565C156.593 171.908 156.223 171.018 156.222 170.088V3.47433C156.231 2.55057 156.605 1.66785 157.261 1.01749C157.917 0.367142 158.803 0.00156424 159.727 0H278.259C279.181 0.00319472 280.065 0.369684 280.719 1.02003C281.373 1.67038 281.744 2.55219 281.752 3.47433V170.088C281.752 171.016 281.384 171.906 280.729 172.563C280.075 173.22 279.186 173.59 278.259 173.593ZM159.727 0.122768C158.838 0.124391 157.987 0.478021 157.359 1.10621C156.731 1.7344 156.377 2.58594 156.375 3.47433V170.088C156.377 170.977 156.731 171.828 157.359 172.457C157.987 173.085 158.838 173.438 159.727 173.44H278.259C279.147 173.438 279.999 173.085 280.627 172.457C281.255 171.828 281.609 170.977 281.611 170.088V3.47433C281.609 2.58594 281.255 1.7344 280.627 1.10621C279.999 0.478021 279.147 0.124391 278.259 0.122768H159.727Z" fill="#E6E6E6"/>
<path d="M198.62 92.1484H245.007V11.3857H198.62V92.1484Z" fill="#E6E6E6"/>
<path d="M196.115 92.1484H242.503V11.3857H196.115V92.1484Z" fill="#F5F5F5"/>
<path d="M237.997 88.3634V15.1816L200.609 15.1816V88.3634H237.997Z" fill="#FAFAFA"/>
<path d="M202.505 88.3634V15.1816H200.609V88.3634H202.505Z" fill="#E6E6E6"/>
<path d="M197.975 70.6953H240.643V65.6066H197.975V70.6953Z" fill="#F5F5F5"/>
<path d="M119.784 92.1484H166.172V11.3857H119.784V92.1484Z" fill="#E6E6E6"/>
<path d="M117.28 92.1484H163.668V11.3857H117.28V92.1484Z" fill="#F5F5F5"/>
<path d="M159.168 88.3634V15.1816L121.779 15.1816V88.3634H159.168Z" fill="#FAFAFA"/>
<path d="M123.67 88.3556V15.1738H121.773V88.3556H123.67Z" fill="#E6E6E6"/>
<path d="M119.14 70.6953H161.808V65.6066H119.14V70.6953Z" fill="#F5F5F5"/>
<path d="M40.9554 92.1484H87.3431L87.3431 11.3857H40.9554L40.9554 92.1484Z" fill="#E6E6E6"/>
<path d="M38.4509 92.1484H84.8386L84.8386 11.3857H38.4509L38.4509 92.1484Z" fill="#F5F5F5"/>
<path d="M80.333 88.3556V15.1738L42.9441 15.1738L42.9441 88.3556H80.333Z" fill="#FAFAFA"/>
<path d="M44.8409 88.3634L44.8409 15.1816H42.9442L42.9442 88.3634H44.8409Z" fill="#E6E6E6"/>
<path d="M40.3109 70.6953H82.9788V65.6066H40.3109V70.6953Z" fill="#F5F5F5"/>
<path d="M85.9374 142.116C77.5708 143.27 72.3962 125.088 90.8481 109.693C89.8844 127.513 100.535 140.103 85.9374 142.116Z" fill="#E6E6E6"/>
<path d="M79.799 165.926C67.6695 157.424 75.9686 127.721 113.505 129.875C97.275 151.74 100.952 180.744 79.799 165.926Z" fill="#E0E0E0"/>
<path d="M84.0958 165.738C92.1555 157.058 80.6828 135.212 51.679 143.192C68.0439 157.555 70.0327 180.863 84.0958 165.738Z" fill="#E0E0E0"/>
<path d="M73.7466 153.067C70.9597 149.673 67.6696 145.855 68.4676 141.815C69.2655 137.776 71.2605 134.775 69.6952 130.478C67.7923 125.322 68.1606 119.171 71.3771 119.687C74.5937 120.202 78.1969 123.983 78.1294 128.962C78.0741 133.799 81.1986 135.346 84.2064 137.918C87.2142 140.49 88.2761 144.252 88.8102 147.935C89.7432 153.785 97.3241 152.68 99.3375 157.757C101.418 162.668 97.2688 169.205 90.6333 170.709C83.9977 172.213 79.2711 173.164 74.7471 167.971C70.1495 162.502 77.8716 157.929 73.7466 153.067Z" fill="#F5F5F5"/>
<path d="M96.5751 200.969H71.6471L69.7688 167.012H98.4535L96.5751 200.969Z" fill="#EBEBEB"/>
<path d="M100.313 166.32H67.9089V169.979H100.313V166.32Z" fill="#EBEBEB"/>
<path d="M243.534 196.361H260.304V123.64H243.534V196.361Z" fill="#EBEBEB"/>
<path d="M112.118 200.971L257.082 200.971V196.361L112.118 196.361V200.971Z" fill="#EBEBEB"/>
<path d="M243.534 123.639H108.901V196.36H243.534V123.639Z" fill="#F5F5F5"/>
<path d="M236.942 132.59H115.494V156.444H236.942V132.59Z" fill="#EBEBEB"/>
<path d="M236.942 163.557H115.494V187.41H236.942V163.557Z" fill="#EBEBEB"/>
<path d="M138.439 146.149H213.996C214.429 146.147 214.843 145.975 215.149 145.669C215.455 145.363 215.628 144.948 215.629 144.516C215.629 144.082 215.457 143.666 215.151 143.359C214.845 143.052 214.43 142.879 213.996 142.877H138.439C138.005 142.879 137.59 143.052 137.284 143.359C136.978 143.666 136.806 144.082 136.806 144.516C136.808 144.948 136.98 145.363 137.286 145.669C137.592 145.975 138.007 146.147 138.439 146.149Z" fill="#F5F5F5"/>
<path d="M138.439 177.117H213.996C214.429 177.116 214.843 176.943 215.149 176.637C215.455 176.331 215.628 175.917 215.629 175.484C215.628 175.052 215.455 174.637 215.149 174.332C214.843 174.026 214.429 173.853 213.996 173.852H138.439C138.007 173.853 137.592 174.026 137.286 174.332C136.98 174.637 136.808 175.052 136.806 175.484C136.808 175.917 136.98 176.331 137.286 176.637C137.592 176.943 138.007 177.116 138.439 177.117Z" fill="#F5F5F5"/>
<path d="M206.366 113.027C206.366 113.027 225.579 131.234 236.985 112.954C236.985 112.954 233.952 107.079 230.754 106.576C227.556 106.072 227.427 111.658 224.616 109.933C221.804 108.209 218.52 102.31 216.728 105.459C214.936 108.608 212.474 104.12 209.792 103.863C207.109 103.605 206.366 113.027 206.366 113.027Z" fill="#F5F5F5"/>
<path d="M238.206 111.768C238.206 111.768 237.789 123.639 221.596 123.639C205.403 123.639 204.985 111.768 204.985 111.768H238.206Z" fill="#EBEBEB"/>
<path d="M156.289 105.58H165.614V123.639H138.236C138.236 118.851 140.138 114.258 143.524 110.872C146.909 107.485 151.501 105.582 156.289 105.58Z" fill="#F5F5F5"/>
<path d="M174.214 105.58H165.614V123.639H174.214V105.58Z" fill="#E6E6E6"/>
<path d="M153.46 228.69C219.191 228.69 272.477 225.579 272.477 221.742C272.477 217.904 219.191 214.793 153.46 214.793C87.7282 214.793 34.4424 217.904 34.4424 221.742C34.4424 225.579 87.7282 228.69 153.46 228.69Z" fill="#F5F5F5"/>
<path d="M133.817 87.63L133.412 88.2438C133.289 88.4219 133.16 88.5815 133.037 88.7472C132.786 89.0787 132.522 89.361 132.258 89.6987C131.724 90.3125 131.184 90.9263 130.607 91.4665C129.453 92.5752 128.222 93.6008 126.924 94.5357C125.627 95.4703 124.262 96.3074 122.842 97.0402C122.123 97.39 121.411 97.7522 120.669 98.0468L119.558 98.4888L119.245 98.6054C119.073 98.6607 118.913 98.7221 118.723 98.765C118.352 98.8577 117.97 98.901 117.587 98.8939C116.858 98.889 116.14 98.7101 115.494 98.3722C114.974 98.1007 114.497 97.7555 114.076 97.3471C113.41 96.6897 112.834 95.9466 112.363 95.1373C111.559 93.7358 110.903 92.2547 110.405 90.7176C109.44 87.82 108.749 84.8379 108.343 81.8108L110.909 81.2461C111.375 82.5904 111.854 83.9777 112.382 85.3158C112.91 86.654 113.438 87.986 114.051 89.2505C114.61 90.4711 115.276 91.6399 116.04 92.7433C116.344 93.2007 116.71 93.6138 117.127 93.971C117.247 94.0693 117.381 94.148 117.526 94.2042C117.612 94.2042 117.606 94.2042 117.563 94.2042H117.52L117.722 94.106L118.637 93.664C119.251 93.3694 119.834 93.0502 120.423 92.6942C121.586 91.9977 122.709 91.2374 123.787 90.4168C124.851 89.5806 125.862 88.6785 126.813 87.7159C127.292 87.2494 127.746 86.7522 128.182 86.2489C128.397 85.9972 128.612 85.7455 128.796 85.4939L129.091 85.1194L129.33 84.8002L133.817 87.63Z" fill="#B97964"/>
<path d="M126.383 87.3672L129.496 94.8315L127.243 96.2371L123.744 89.4665L126.383 87.3672Z" fill="#263238"/>
<path d="M135.192 81.0806C130.116 81.0131 124.959 87.44 124.83 87.5996L128.845 97.0404C128.845 97.0404 137.776 89.791 138.224 86.955C138.691 84.0025 138.409 81.1236 135.192 81.0806Z" fill="#407BFF"/>
<path opacity="0.3" d="M135.192 81.0806C130.116 81.0131 124.959 87.44 124.83 87.5996L128.845 97.0404C128.845 97.0404 137.776 89.791 138.224 86.955C138.691 84.0025 138.409 81.1236 135.192 81.0806Z" fill="black"/>
<path d="M110.491 80.2706L106.98 77.5391L106.268 82.9163C106.268 82.9163 109.681 84.2544 111.498 83.0943L111.449 82.1122C111.43 81.7545 111.335 81.405 111.17 81.0872C111.005 80.7695 110.773 80.491 110.491 80.2706Z" fill="#B97964"/>
<path d="M102.302 77.2676L102.523 81.3496L106.286 82.9149L106.998 77.5377L102.302 77.2676Z" fill="#B97964"/>
<path d="M179.241 79.8354L184.667 78.4788L180.874 74.6055C180.874 74.6055 177.356 76.0419 178.216 79.111L179.241 79.8354Z" fill="#B97964"/>
<path d="M187.362 77.5139L186.914 73.2539L180.843 74.6043L184.637 78.4777L187.362 77.5139Z" fill="#B97964"/>
<path d="M161.544 216.359L156.492 216.843L152.275 204.923L157.327 204.432L161.544 216.359Z" fill="#B97964"/>
<path d="M215.623 191.296L211.903 194.906L202.34 187.441L206.066 183.832L215.623 191.296Z" fill="#B97964"/>
<path d="M210.829 194.205L213.69 189.128C213.738 189.041 213.816 188.974 213.91 188.941C214.004 188.907 214.106 188.908 214.199 188.944L218.545 190.626C218.653 190.673 218.749 190.742 218.828 190.828C218.907 190.914 218.967 191.017 219.004 191.128C219.041 191.239 219.055 191.357 219.043 191.473C219.032 191.59 218.996 191.703 218.938 191.805C217.913 193.56 217.33 194.352 216.071 196.586C215.298 197.961 213.788 201.11 212.72 203.007C211.652 204.904 209.718 203.946 209.994 203.062C211.222 199.091 211.013 196.875 210.682 195.119C210.621 194.807 210.673 194.483 210.829 194.205Z" fill="#263238"/>
<path d="M155.485 215.297H161.624C161.734 215.299 161.841 215.337 161.928 215.404C162.015 215.472 162.079 215.565 162.109 215.671L163.447 220.539C163.481 220.654 163.487 220.776 163.465 220.893C163.443 221.011 163.394 221.122 163.321 221.217C163.248 221.313 163.153 221.389 163.045 221.441C162.937 221.493 162.818 221.518 162.698 221.515C160.543 221.478 159.494 221.349 156.787 221.349C155.123 221.349 149.703 221.527 147.401 221.527C145.099 221.527 144.682 219.25 145.615 219.072C149.789 218.145 153.312 216.874 154.595 215.659C154.833 215.426 155.153 215.296 155.485 215.297Z" fill="#263238"/>
<path d="M152.281 204.923L154.448 211.073H159.678L157.333 204.432L152.281 204.923Z" fill="#A76755"/>
<path d="M206.072 183.832L202.346 187.448L207.275 191.29L211.001 187.681L206.072 183.832Z" fill="#A76755"/>
<path d="M130.251 82.7193C130.251 82.7193 128.164 84.3091 142.227 111.754L162.275 105.278C159.304 97.2304 157.671 92.2031 156.136 74.1992C153.163 74.5282 150.217 75.0718 147.322 75.8259C144.226 76.6049 141.185 77.5872 138.218 78.7662C134.388 80.4113 130.251 82.7193 130.251 82.7193Z" fill="#407BFF"/>
<path opacity="0.3" d="M130.251 82.7193C130.251 82.7193 128.164 84.3091 142.227 111.754L162.275 105.278C159.304 97.2304 157.671 92.2031 156.136 74.1992C153.163 74.5282 150.217 75.0718 147.322 75.8259C144.226 76.6049 141.185 77.5872 138.218 78.7662C134.388 80.4113 130.251 82.7193 130.251 82.7193Z" fill="black"/>
<path d="M143.08 65.8633C143.448 68.9816 144.608 74.5307 147.291 75.8259C147.291 75.8259 147.444 79.0547 142.006 80.8102C136.021 82.7438 138.188 78.7662 138.188 78.7662C141.202 76.9247 140.33 74.5307 139.029 72.4436L143.08 65.8633Z" fill="#B97964"/>
<path d="M133.019 81.2346C134.498 80.4673 136.383 79.5343 138.188 78.7793C141.158 77.5786 144.21 76.5919 147.322 75.8267C149.071 75.3479 150.839 74.9919 152.33 74.7402C152.472 75.1576 152.048 76.238 151.011 77.7296C147.727 80.4551 140.723 83.9969 135.56 83.868C133.301 83.0271 132.737 82.137 133.019 81.2346Z" fill="#B97964"/>
<path d="M151.005 77.7285C148.775 80.7175 146.11 83.3556 143.098 85.555C140.534 85.2428 138.007 84.6773 135.554 83.8669C140.692 83.9958 147.696 80.454 151.005 77.7285Z" fill="#263238"/>
<path d="M141.429 68.5449L139.028 72.4305C139.342 72.9148 139.611 73.4264 139.833 73.959C141.023 73.3758 142.54 71.6509 142.251 70.276C142.08 69.6554 141.801 69.0696 141.429 68.5449Z" fill="#A76755"/>
<path d="M144.295 60.106C144.602 65.2438 144.848 67.4107 142.589 70.3448C139.194 74.7522 132.816 74.0279 130.975 69.068C129.324 64.6177 129.097 56.9632 133.841 54.3359C134.884 53.7501 136.059 53.4402 137.255 53.4356C138.451 53.431 139.628 53.732 140.675 54.3099C141.722 54.8878 142.604 55.7236 143.238 56.7379C143.871 57.7523 144.235 58.9116 144.295 60.106Z" fill="#B97964"/>
<path d="M154.443 50.8985C155.603 45.7944 152.407 40.7159 147.302 39.5553C142.198 38.3948 137.12 41.5916 135.959 46.6957C134.799 51.7998 137.996 56.8783 143.1 58.0389C148.204 59.1994 153.282 56.0026 154.443 50.8985Z" fill="#263238"/>
<path d="M142.834 52.9119C144.786 54.201 145.756 56.1775 145.001 57.3254C144.246 58.4733 142.049 58.3628 140.09 57.0737C138.132 55.7847 137.169 53.8081 137.924 52.6602C138.679 51.5124 140.876 51.6229 142.834 52.9119Z" fill="#407BFF"/>
<path opacity="0.6" d="M142.834 52.9119C144.786 54.201 145.756 56.1775 145.001 57.3254C144.246 58.4733 142.049 58.3628 140.09 57.0737C138.132 55.7847 137.169 53.8081 137.924 52.6602C138.679 51.5124 140.876 51.6229 142.834 52.9119Z" fill="#FAFAFA"/>
<path d="M141.797 63.6122C142.306 62.4336 140.532 58.9347 140.913 57.6273C139.894 56.6758 129.563 60.0396 130.398 57.5843C131.196 55.2271 133.713 52.1027 139.458 53.4102C145.597 54.8097 146.131 60.1194 145.443 61.8136C144.756 63.5078 143.78 65.2695 143.78 65.2695L141.797 63.6122Z" fill="#263238"/>
<path d="M145.646 64.6122C145.659 65.6064 145.279 66.5658 144.59 67.2824C143.663 68.2215 142.546 67.5463 142.257 66.3309C141.993 65.2383 142.165 63.4275 143.356 62.9487C143.619 62.8464 143.903 62.8118 144.182 62.8478C144.461 62.8839 144.727 62.9896 144.955 63.1552C145.183 63.3208 145.366 63.541 145.486 63.7955C145.607 64.0501 145.662 64.3309 145.646 64.6122Z" fill="#B97964"/>
<path d="M142.227 111.753C142.227 111.753 132.933 157.079 138.114 172.026C143.503 187.574 152.275 209.279 152.275 209.279L160.47 208.813C160.47 208.813 153.718 181.387 152.054 168.999C149.777 151.922 159.531 106.191 159.531 106.191L142.227 111.753Z" fill="#407BFF"/>
<path opacity="0.6" d="M142.227 111.753C142.227 111.753 132.933 157.079 138.114 172.026C143.503 187.574 152.275 209.279 152.275 209.279L160.47 208.813C160.47 208.813 153.718 181.387 152.054 168.999C149.777 151.922 159.531 106.191 159.531 106.191L142.227 111.753Z" fill="#FAFAFA"/>
<path d="M161.114 209.011L151.631 209.557L150.108 205.825L160.568 204.738L161.114 209.011Z" fill="#407BFF"/>
<path opacity="0.2" d="M161.114 209.011L151.631 209.557L150.108 205.825L160.568 204.738L161.114 209.011Z" fill="black"/>
<path d="M152.054 115.242C150.63 120.509 151.821 128.403 154.509 133.94C155.166 129.643 155.866 125.481 156.529 121.755C155.148 119.085 153.626 116.715 152.054 115.242Z" fill="#407BFF"/>
<path opacity="0.4" d="M152.054 115.242C150.63 120.509 151.821 128.403 154.509 133.94C155.166 129.643 155.866 125.481 156.529 121.755C155.148 119.085 153.626 116.715 152.054 115.242Z" fill="#FAFAFA"/>
<path d="M147.518 110.043C147.518 110.043 161.317 143.024 170.457 161.132C177.823 175.779 205.157 191.106 205.157 191.106L210.068 185.901C210.068 185.901 189.64 167.762 184.545 157.83C168.241 126.039 171.593 112.154 162.287 105.279L147.518 110.043Z" fill="#407BFF"/>
<path opacity="0.6" d="M147.518 110.043C147.518 110.043 161.317 143.024 170.457 161.132C177.823 175.779 205.157 191.106 205.157 191.106L210.068 185.901C210.068 185.901 189.64 167.762 184.545 157.83C168.241 126.039 171.593 112.154 162.287 105.279L147.518 110.043Z" fill="#FAFAFA"/>
<path d="M210.983 185.158L204.23 192.334L199.958 190.087L207.735 182.156L210.983 185.158Z" fill="#407BFF"/>
<path opacity="0.2" d="M210.983 185.158L204.23 192.334L199.958 190.087L207.735 182.156L210.983 185.158Z" fill="black"/>
<path d="M162.195 104.006L163.674 105.51C163.791 105.627 163.674 105.823 163.441 105.897L142.417 112.649C142.233 112.711 142.055 112.649 142.006 112.557L141.251 110.826C141.195 110.703 141.318 110.55 141.515 110.482L161.814 103.933C161.879 103.911 161.947 103.906 162.014 103.919C162.081 103.932 162.143 103.962 162.195 104.006Z" fill="#263238"/>
<path d="M160.212 107.156L160.752 106.984C160.863 106.947 160.924 106.861 160.9 106.8L159.893 104.547C159.893 104.486 159.746 104.461 159.641 104.492L159.095 104.67C158.991 104.67 158.923 104.786 158.954 104.854L159.96 107.101C159.979 107.168 160.089 107.193 160.212 107.156Z" fill="#407BFF"/>
<path opacity="0.6" d="M160.212 107.156L160.752 106.984C160.863 106.947 160.924 106.861 160.9 106.8L159.893 104.547C159.893 104.486 159.746 104.461 159.641 104.492L159.095 104.67C158.991 104.67 158.923 104.786 158.954 104.854L159.96 107.101C159.979 107.168 160.089 107.193 160.212 107.156Z" fill="#FAFAFA"/>
<path d="M144.007 112.386L144.553 112.208C144.657 112.171 144.725 112.092 144.694 112.024L143.688 109.777C143.657 109.71 143.546 109.685 143.436 109.722L142.89 109.894C142.785 109.931 142.718 110.011 142.748 110.078L143.755 112.325C143.786 112.392 143.896 112.417 144.007 112.386Z" fill="#407BFF"/>
<path opacity="0.6" d="M144.007 112.386L144.553 112.208C144.657 112.171 144.725 112.092 144.694 112.024L143.688 109.777C143.657 109.71 143.546 109.685 143.436 109.722L142.89 109.894C142.785 109.931 142.718 110.011 142.748 110.078L143.755 112.325C143.786 112.392 143.896 112.417 144.007 112.386Z" fill="#FAFAFA"/>
<path d="M152.103 109.771L152.643 109.593C152.754 109.593 152.821 109.476 152.791 109.409L151.784 107.162C151.753 107.095 151.637 107.07 151.532 107.107L150.986 107.285C150.882 107.316 150.814 107.402 150.845 107.463L151.852 109.716C151.882 109.751 151.923 109.775 151.968 109.785C152.014 109.795 152.061 109.79 152.103 109.771Z" fill="#407BFF"/>
<path opacity="0.6" d="M152.103 109.771L152.643 109.593C152.754 109.593 152.821 109.476 152.791 109.409L151.784 107.162C151.753 107.095 151.637 107.07 151.532 107.107L150.986 107.285C150.882 107.316 150.814 107.402 150.845 107.463L151.852 109.716C151.882 109.751 151.923 109.775 151.968 109.785C152.014 109.795 152.061 109.79 152.103 109.771Z" fill="#FAFAFA"/>
<path d="M136.733 62.4751C136.782 62.8863 136.604 63.2546 136.334 63.2853C136.064 63.316 135.8 63.0091 135.751 62.5917C135.701 62.1743 135.879 61.8121 136.15 61.7814C136.42 61.7507 136.684 62.0576 136.733 62.4751Z" fill="#263238"/>
<path d="M132.037 63.0464C132.092 63.4638 131.908 63.8259 131.638 63.8566C131.368 63.8873 131.104 63.5804 131.055 63.1691C131.006 62.7578 131.184 62.3895 131.454 62.3527C131.724 62.3159 131.976 62.6105 132.037 63.0464Z" fill="#263238"/>
<path d="M131.576 62.365L130.545 62.1992C130.545 62.1992 131.153 62.9174 131.576 62.365Z" fill="#263238"/>
<path d="M133.369 63.6113C133.112 64.6029 132.722 65.5549 132.209 66.4411C132.44 66.5644 132.695 66.6369 132.956 66.6539C133.218 66.6708 133.48 66.6318 133.725 66.5393L133.369 63.6113Z" fill="#A24E3F"/>
<path d="M135.37 67.9937C135.34 67.9941 135.312 67.9837 135.289 67.9645C135.267 67.9453 135.252 67.9187 135.247 67.8894C135.245 67.8564 135.255 67.8238 135.276 67.7978C135.296 67.7718 135.325 67.7541 135.358 67.7482C135.875 67.6967 136.373 67.5243 136.811 67.2449C137.249 66.9655 137.616 66.587 137.881 66.1399C137.887 66.1248 137.897 66.1112 137.909 66.0999C137.921 66.0886 137.935 66.0798 137.95 66.074C137.966 66.0683 137.982 66.0658 137.999 66.0665C138.015 66.0673 138.031 66.0714 138.046 66.0786C138.061 66.0857 138.074 66.0957 138.085 66.108C138.095 66.1202 138.103 66.1345 138.109 66.1499C138.114 66.1653 138.116 66.1816 138.115 66.1978C138.113 66.214 138.109 66.2298 138.102 66.2443C137.823 66.732 137.431 67.1455 136.958 67.45C136.486 67.7544 135.948 67.9409 135.388 67.9937H135.37Z" fill="#263238"/>
<path d="M137.316 61.0014C137.257 61.0007 137.2 60.9789 137.156 60.94C136.929 60.73 136.655 60.5776 136.357 60.4953C136.059 60.4131 135.746 60.4035 135.444 60.4673C135.412 60.4766 135.379 60.4796 135.347 60.4759C135.314 60.4723 135.282 60.4622 135.254 60.4461C135.225 60.4301 135.2 60.4085 135.18 60.3827C135.16 60.3568 135.145 60.3271 135.137 60.2955C135.127 60.2644 135.125 60.2318 135.128 60.1997C135.132 60.1675 135.142 60.1364 135.158 60.1083C135.174 60.0802 135.196 60.0556 135.222 60.0361C135.248 60.0165 135.277 60.0025 135.309 59.9947C135.689 59.9111 136.084 59.9193 136.461 60.0185C136.838 60.1178 137.185 60.3053 137.475 60.5655C137.499 60.5884 137.517 60.6156 137.53 60.6457C137.542 60.6757 137.549 60.7079 137.549 60.7405C137.549 60.7731 137.542 60.8053 137.53 60.8353C137.517 60.8654 137.499 60.8926 137.475 60.9154C137.435 60.9629 137.378 60.9935 137.316 61.0014Z" fill="#263238"/>
<path d="M129.612 61.1426C129.576 61.1512 129.538 61.1512 129.502 61.1426C129.445 61.1114 129.403 61.0595 129.383 60.9978C129.364 60.936 129.369 60.8692 129.397 60.8111C129.565 60.4601 129.814 60.1541 130.124 59.9182C130.433 59.6823 130.795 59.5234 131.178 59.4545C131.242 59.4476 131.306 59.4663 131.357 59.5065C131.407 59.5467 131.44 59.6052 131.448 59.6694C131.452 59.7017 131.45 59.7345 131.441 59.7659C131.433 59.7974 131.418 59.8268 131.398 59.8525C131.378 59.8782 131.353 59.8997 131.325 59.9156C131.296 59.9316 131.265 59.9418 131.233 59.9456C130.93 60.0021 130.645 60.1301 130.401 60.3191C130.158 60.5081 129.963 60.7526 129.833 61.0321C129.809 61.0684 129.776 61.0978 129.738 61.1172C129.699 61.1366 129.656 61.1454 129.612 61.1426Z" fill="#263238"/>
<path d="M160.212 78.9947L160.445 79.2893L160.734 79.6392C160.93 79.8725 161.133 80.1119 161.348 80.3451C161.771 80.8178 162.213 81.2843 162.686 81.7263C163.611 82.6337 164.589 83.4864 165.614 84.2798C166.655 85.0681 167.734 85.8036 168.849 86.4835C169.407 86.8211 169.978 87.1403 170.555 87.4534L171.433 87.9015L171.857 88.1163C171.961 88.1654 172.065 88.2146 172.164 88.2514C172.477 88.382 172.812 88.4508 173.152 88.454C173.464 88.4361 173.763 88.3249 174.011 88.1348C174.834 87.4529 175.484 86.5864 175.908 85.6057C176.478 84.4233 176.936 83.1903 177.277 81.9227C177.656 80.63 177.97 79.3187 178.216 77.9941L180.837 78.1599C180.919 81.1817 180.487 84.1955 179.56 87.0728C179.298 87.8572 178.958 88.6138 178.548 89.3317C178.092 90.1499 177.502 90.8864 176.804 91.5109C175.973 92.2491 174.957 92.7477 173.864 92.9534C172.802 93.1387 171.711 93.0628 170.684 92.7324C170.445 92.6649 170.224 92.5789 169.997 92.493L169.463 92.272L168.419 91.8362C167.726 91.5231 167.044 91.2224 166.375 90.8418C165.032 90.1332 163.738 89.3354 162.502 88.454C161.264 87.5612 160.085 86.5893 158.972 85.5444C158.42 85.0165 157.886 84.4579 157.364 83.8808C157.106 83.5862 156.848 83.267 156.603 82.9846L156.228 82.4997C156.099 82.3278 156.001 82.1928 155.829 81.9473L160.212 78.9947Z" fill="#B97964"/>
<path d="M164.564 82.2294L160.722 88.6808L158.849 86.9129L162.397 80.4492L164.564 82.2294Z" fill="#263238"/>
<path d="M156.161 74.1994C158.371 74.1625 163.736 80.4974 163.736 80.4974L159.07 88.6184C159.07 88.6184 153.128 83.3824 153.135 80.5158C153.141 77.5264 153.644 74.273 156.161 74.1994Z" fill="#407BFF"/>
<path opacity="0.3" d="M156.161 74.1994C158.371 74.1625 163.736 80.4974 163.736 80.4974L159.07 88.6184C159.07 88.6184 153.128 83.3824 153.135 80.5158C153.141 77.5264 153.644 74.273 156.161 74.1994Z" fill="black"/>
<path d="M209.823 196.962C209.652 196.955 209.488 196.893 209.356 196.784C209.294 196.743 209.245 196.685 209.214 196.618C209.182 196.551 209.17 196.477 209.178 196.403C209.233 195.74 210.897 194.868 211.081 194.77C211.101 194.757 211.124 194.75 211.148 194.75C211.172 194.75 211.196 194.757 211.216 194.77C211.234 194.786 211.248 194.806 211.256 194.829C211.263 194.851 211.264 194.876 211.259 194.899C211.069 195.562 210.645 196.704 210.031 196.906C209.965 196.937 209.895 196.956 209.823 196.962ZM210.934 195.12C210.283 195.488 209.454 196.065 209.424 196.409C209.419 196.442 209.424 196.476 209.44 196.506C209.455 196.536 209.48 196.56 209.509 196.575C209.567 196.631 209.638 196.67 209.716 196.688C209.794 196.707 209.875 196.703 209.951 196.679C210.289 196.581 210.645 196.004 210.934 195.132V195.12Z" fill="#407BFF"/>
<path d="M209.595 195.354C209.326 195.377 209.056 195.31 208.828 195.164C208.754 195.1 208.704 195.013 208.686 194.917C208.669 194.821 208.684 194.722 208.73 194.636C208.763 194.547 208.816 194.467 208.885 194.402C208.955 194.337 209.038 194.289 209.129 194.262C209.841 194.022 211.142 194.74 211.198 194.771C211.218 194.782 211.234 194.798 211.246 194.817C211.258 194.837 211.265 194.859 211.265 194.882C211.264 194.903 211.258 194.923 211.247 194.941C211.237 194.96 211.222 194.975 211.204 194.986C210.702 195.229 210.153 195.355 209.595 195.354ZM209.467 194.458C209.379 194.457 209.292 194.469 209.209 194.495C209.152 194.513 209.1 194.543 209.057 194.583C209.013 194.623 208.979 194.673 208.957 194.728C208.896 194.876 208.957 194.937 208.957 194.98C209.233 195.213 210.252 195.115 210.835 194.875C210.41 194.65 209.945 194.508 209.467 194.458Z" fill="#407BFF"/>
<path d="M152.76 216.315C152.331 216.351 151.901 216.25 151.532 216.026C151.436 215.956 151.357 215.863 151.303 215.757C151.249 215.65 151.22 215.532 151.219 215.412C151.212 215.348 151.222 215.282 151.25 215.223C151.277 215.163 151.319 215.112 151.373 215.075C151.931 214.694 154.031 215.652 154.442 215.842C154.465 215.854 154.485 215.872 154.497 215.896C154.509 215.919 154.513 215.945 154.509 215.971C154.507 215.996 154.497 216.02 154.481 216.039C154.464 216.057 154.442 216.07 154.417 216.075C153.874 216.211 153.319 216.291 152.76 216.315ZM151.778 215.253C151.695 215.245 151.612 215.262 151.538 215.302C151.52 215.315 151.505 215.332 151.497 215.353C151.488 215.374 151.485 215.397 151.489 215.419C151.491 215.499 151.512 215.578 151.549 215.649C151.586 215.72 151.639 215.782 151.704 215.83C152.189 216.198 153.343 216.057 154.018 215.934C153.31 215.596 152.555 215.366 151.778 215.253Z" fill="#407BFF"/>
<path d="M154.417 216.102H154.368C153.675 215.819 152.275 214.696 152.355 214.113C152.355 213.984 152.453 213.824 152.772 213.787C154 213.628 154.516 215.868 154.534 215.96C154.539 215.982 154.538 216.005 154.532 216.027C154.525 216.048 154.513 216.068 154.497 216.083C154.473 216.097 154.445 216.104 154.417 216.102ZM152.883 214.021H152.803C152.674 214.021 152.6 214.076 152.594 214.137C152.551 214.469 153.515 215.365 154.227 215.746C154.074 215.218 153.619 214.021 152.883 214.021Z" fill="#407BFF"/>
<path d="M136.272 61.7888L135.241 61.623C135.241 61.623 135.849 62.3412 136.272 61.7888Z" fill="#263238"/>
<path d="M97.8706 18.8926C96.7841 20.2553 90.7992 21.8574 86.042 21.4155C84.403 32.1699 90.1301 44.551 90.1301 44.551C90.1301 44.551 102.56 43.0717 102.867 37.9523C103.174 32.8328 97.8706 18.8926 97.8706 18.8926Z" fill="#407BFF"/>
<path opacity="0.4" d="M97.8706 18.8926C96.7841 20.2553 90.7992 21.8574 86.042 21.4155C84.403 32.1699 90.1301 44.551 90.1301 44.551C90.1301 44.551 102.56 43.0717 102.867 37.9523C103.174 32.8328 97.8706 18.8926 97.8706 18.8926Z" fill="#FAFAFA"/>
<path d="M191.966 10.7109C193.077 12.2762 198.718 13.8292 203.083 13.019C205.421 25.75 201.088 40.875 201.088 40.875C201.088 40.875 189.504 39.8437 188.811 33.7606C188.117 27.6774 191.966 10.7109 191.966 10.7109Z" fill="#407BFF"/>
<path opacity="0.4" d="M191.966 10.7109C193.077 12.2762 198.718 13.8292 203.083 13.019C205.421 25.75 201.088 40.875 201.088 40.875C201.088 40.875 189.504 39.8437 188.811 33.7606C188.117 27.6774 191.966 10.7109 191.966 10.7109Z" fill="#FAFAFA"/>
<path d="M110.491 120.967C110.403 120.98 110.313 120.976 110.226 120.954C110.14 120.932 110.058 120.893 109.987 120.839C109.916 120.785 109.856 120.718 109.81 120.641C109.765 120.564 109.736 120.479 109.724 120.39L95.1451 16.977C95.1331 16.8856 95.1396 16.7929 95.1642 16.7041C95.1888 16.6153 95.231 16.5324 95.2883 16.4603C95.3455 16.3881 95.4167 16.3282 95.4975 16.2841C95.5784 16.24 95.6673 16.2126 95.7589 16.2035C95.8476 16.1914 95.9378 16.1969 96.0244 16.2197C96.1109 16.2424 96.1921 16.282 96.2634 16.3362C96.3346 16.3903 96.3945 16.458 96.4396 16.5353C96.4847 16.6126 96.5142 16.698 96.5262 16.7867L111.105 120.194C111.117 120.285 111.11 120.378 111.086 120.467C111.061 120.556 111.019 120.638 110.962 120.711C110.904 120.783 110.833 120.843 110.752 120.887C110.672 120.931 110.583 120.958 110.491 120.967Z" fill="#407BFF"/>
<path opacity="0.2" d="M110.491 120.967C110.403 120.98 110.313 120.976 110.226 120.954C110.14 120.932 110.058 120.893 109.987 120.839C109.916 120.785 109.856 120.718 109.81 120.641C109.765 120.564 109.736 120.479 109.724 120.39L95.1451 16.977C95.1331 16.8856 95.1396 16.7929 95.1642 16.7041C95.1888 16.6153 95.231 16.5324 95.2883 16.4603C95.3455 16.3881 95.4167 16.3282 95.4975 16.2841C95.5784 16.24 95.6673 16.2126 95.7589 16.2035C95.8476 16.1914 95.9378 16.1969 96.0244 16.2197C96.1109 16.2424 96.1921 16.282 96.2634 16.3362C96.3346 16.3903 96.3945 16.458 96.4396 16.5353C96.4847 16.6126 96.5142 16.698 96.5262 16.7867L111.105 120.194C111.117 120.285 111.11 120.378 111.086 120.467C111.061 120.556 111.019 120.638 110.962 120.711C110.904 120.783 110.833 120.843 110.752 120.887C110.672 120.931 110.583 120.958 110.491 120.967Z" fill="black"/>
<path d="M179.959 113.283C180.051 113.295 180.143 113.288 180.232 113.264C180.321 113.239 180.404 113.197 180.476 113.14C180.548 113.082 180.608 113.011 180.652 112.93C180.696 112.849 180.724 112.761 180.733 112.669L195.342 9.26168C195.355 9.17299 195.35 9.0826 195.328 8.99569C195.306 8.90879 195.268 8.82707 195.214 8.75522C195.16 8.68337 195.093 8.6228 195.016 8.57699C194.939 8.53118 194.854 8.50102 194.765 8.48825C194.674 8.47628 194.581 8.48279 194.492 8.50739C194.403 8.53198 194.32 8.57416 194.248 8.63141C194.176 8.68867 194.116 8.75983 194.072 8.84069C194.028 8.92154 194.001 9.01043 193.992 9.10208L179.382 112.509C179.358 112.688 179.404 112.87 179.512 113.014C179.62 113.159 179.781 113.255 179.959 113.283Z" fill="#407BFF"/>
<path opacity="0.2" d="M179.959 113.283C180.051 113.295 180.143 113.288 180.232 113.264C180.321 113.239 180.404 113.197 180.476 113.14C180.548 113.082 180.608 113.011 180.652 112.93C180.696 112.849 180.724 112.761 180.733 112.669L195.342 9.26168C195.355 9.17299 195.35 9.0826 195.328 8.99569C195.306 8.90879 195.268 8.82707 195.214 8.75522C195.16 8.68337 195.093 8.6228 195.016 8.57699C194.939 8.53118 194.854 8.50102 194.765 8.48825C194.674 8.47628 194.581 8.48279 194.492 8.50739C194.403 8.53198 194.32 8.57416 194.248 8.63141C194.176 8.68867 194.116 8.75983 194.072 8.84069C194.028 8.92154 194.001 9.01043 193.992 9.10208L179.382 112.509C179.358 112.688 179.404 112.87 179.512 113.014C179.62 113.159 179.781 113.255 179.959 113.283Z" fill="black"/>
<path d="M94.5621 19.1629L97.3243 39.4686C97.3412 39.597 97.3857 39.7201 97.4547 39.8296C97.5237 39.9391 97.6157 40.0323 97.7242 40.1029C97.8327 40.1735 97.9551 40.2197 98.0832 40.2385C98.2113 40.2572 98.3419 40.2479 98.4661 40.2114C104.641 38.4435 138.979 29.6288 191.727 35.2393C191.951 35.2651 192.176 35.2055 192.358 35.0724C192.54 34.9393 192.665 34.7424 192.709 34.5211C193.703 29.3771 195.416 14.7248 195.852 10.9743C195.878 10.7378 195.81 10.5006 195.663 10.3135C195.516 10.1264 195.302 10.0044 195.066 9.97371C187.982 9.0775 139.63 3.7187 95.182 18.1807C94.9809 18.2473 94.8092 18.3816 94.6961 18.5608C94.5831 18.7399 94.5357 18.9527 94.5621 19.1629Z" fill="#407BFF"/>
<path opacity="0.6" d="M94.5621 19.1629L97.3243 39.4686C97.3412 39.597 97.3857 39.7201 97.4547 39.8296C97.5237 39.9391 97.6157 40.0323 97.7242 40.1029C97.8327 40.1735 97.9551 40.2197 98.0832 40.2385C98.2113 40.2572 98.3419 40.2479 98.4661 40.2114C104.641 38.4435 138.979 29.6288 191.727 35.2393C191.951 35.2651 192.176 35.2055 192.358 35.0724C192.54 34.9393 192.665 34.7424 192.709 34.5211C193.703 29.3771 195.416 14.7248 195.852 10.9743C195.878 10.7378 195.81 10.5006 195.663 10.3135C195.516 10.1264 195.302 10.0044 195.066 9.97371C187.982 9.0775 139.63 3.7187 95.182 18.1807C94.9809 18.2473 94.8092 18.3816 94.6961 18.5608C94.5831 18.7399 94.5357 18.9527 94.5621 19.1629Z" fill="#FAFAFA"/>
<path d="M103.42 22.7112L106.329 22.0974L108.386 27.4439L108.907 21.5756L111.811 20.9618L114.358 26.204L114.395 20.44L117.292 19.8262L116.912 30.2L113.91 30.8139L111.031 24.9088L110.417 31.5136L107.416 32.1275L103.42 22.7112Z" fill="#FAFAFA"/>
<path d="M118.717 19.716L126.997 18.4883L127.267 20.6244L122.087 21.3856L122.289 22.9816L127.095 22.2757L127.353 24.3197L122.547 25.0257L122.768 27.0084L128.102 26.2288L128.391 28.5L119.957 29.7277L118.717 19.716Z" fill="#FAFAFA"/>
<path d="M129.103 18.2478L132.209 17.9102L132.872 25.5033L137.715 24.9816L137.936 27.4369L129.956 28.2963L129.103 18.2478Z" fill="#FAFAFA"/>
<path d="M145.517 22.7486L148.285 23.3625C148.171 24.0716 147.909 24.749 147.518 25.3513C147.159 25.8936 146.669 26.3369 146.094 26.6404C145.404 26.9726 144.655 27.1606 143.89 27.1928C142.977 27.2901 142.055 27.1918 141.183 26.9043C140.428 26.5782 139.788 26.0356 139.341 25.3452C138.754 24.4422 138.437 23.3901 138.427 22.3128C138.266 20.8995 138.672 19.48 139.556 18.3658C140.03 17.8629 140.601 17.4607 141.233 17.1833C141.866 16.906 142.548 16.7591 143.239 16.7514C144.281 16.6153 145.339 16.8085 146.266 17.3039C147.079 17.8448 147.692 18.6387 148.009 19.5628L145.29 20.3731C145.215 20.1367 145.101 19.9147 144.952 19.7163C144.764 19.4933 144.523 19.3204 144.252 19.2129C143.811 19.0327 143.32 19.018 142.868 19.1714C142.417 19.3248 142.037 19.636 141.797 20.0478C141.499 20.6785 141.386 21.381 141.472 22.0734C141.525 23.1906 141.729 23.9456 142.085 24.3385C142.271 24.5343 142.499 24.6836 142.753 24.7743C143.007 24.8649 143.279 24.8944 143.546 24.8603C143.798 24.8572 144.046 24.8009 144.275 24.6951C144.503 24.5893 144.707 24.4364 144.872 24.2464C145.212 23.8105 145.434 23.2948 145.517 22.7486Z" fill="#FAFAFA"/>
<path d="M149.421 21.5744C149.373 20.8683 149.465 20.1597 149.693 19.4896C149.92 18.8195 150.279 18.2012 150.747 17.6704C151.249 17.1763 151.845 16.7881 152.499 16.5287C153.154 16.2693 153.855 16.144 154.559 16.1603C155.258 16.0907 155.963 16.1636 156.633 16.3746C157.303 16.5857 157.924 16.9304 158.457 17.388C158.935 17.885 159.306 18.4748 159.548 19.1209C159.79 19.767 159.897 20.4557 159.862 21.1447C159.915 22.1529 159.726 23.1591 159.31 24.0789C158.934 24.8449 158.343 25.4849 157.609 25.9204C156.756 26.397 155.794 26.6464 154.816 26.6447C153.851 26.7126 152.883 26.5571 151.987 26.1905C151.216 25.8362 150.573 25.2532 150.145 24.5208C149.642 23.6222 149.391 22.604 149.421 21.5744ZM152.533 21.4885C152.479 22.2659 152.696 23.0382 153.147 23.6737C153.338 23.8903 153.578 24.0587 153.847 24.1653C154.116 24.272 154.406 24.3139 154.694 24.2876C154.988 24.2942 155.28 24.2341 155.548 24.1119C155.816 23.9896 156.053 23.8084 156.241 23.5816C156.669 22.8678 156.852 22.0336 156.762 21.2061C156.815 20.465 156.597 19.73 156.148 19.1375C155.952 18.9217 155.709 18.7541 155.438 18.6476C155.166 18.5412 154.874 18.4987 154.583 18.5236C154.295 18.5227 154.01 18.5868 153.749 18.7112C153.489 18.8355 153.26 19.0169 153.079 19.2418C152.647 19.9047 152.455 20.6951 152.533 21.4823V21.4885Z" fill="#FAFAFA"/>
<path d="M161.753 16.1367H165.847L167.259 22.3181L168.996 16.1797L173.09 16.2165L172.814 26.3448H170.261L170.469 18.6166L168.296 26.3264H165.988L164.239 18.5798L164.03 26.308H161.477L161.753 16.1367Z" fill="#FAFAFA"/>
<path d="M175.337 16.3145L183.667 16.6889L183.538 18.8496L178.32 18.6163L178.216 20.2553L183.053 20.4701L182.924 22.5019L178.087 22.2871L177.964 24.2882L183.329 24.5215L183.182 26.8172L174.699 26.4366L175.337 16.3145Z" fill="#FAFAFA"/>
</svg>
