<svg width="40" height="40" viewBox="0 0 40 40" fill="none" xmlns="http://www.w3.org/2000/svg">
<path d="M14.1667 31.6165H13.3333C6.66668 31.6165 3.33334 29.9499 3.33334 21.6165V13.2832C3.33334 6.61654 6.66668 3.2832 13.3333 3.2832H26.6667C33.3333 3.2832 36.6667 6.61654 36.6667 13.2832V21.6165C36.6667 28.2832 33.3333 31.6165 26.6667 31.6165H25.8333C25.3167 31.6165 24.8167 31.8666 24.5 32.2832L22 35.6166C20.9 37.0832 19.1 37.0832 18 35.6166L15.5 32.2832C15.2333 31.9166 14.6333 31.6165 14.1667 31.6165Z" stroke="white" stroke-width="1.5" stroke-miterlimit="10" stroke-linecap="round" stroke-linejoin="round"/>
<path d="M13.3333 14.5L10 17.8333L13.3333 21.1667" stroke="white" stroke-width="1.5" stroke-miterlimit="10" stroke-linecap="round" stroke-linejoin="round"/>
<path d="M26.6667 14.5L30 17.8333L26.6667 21.1667" stroke="white" stroke-width="1.5" stroke-miterlimit="10" stroke-linecap="round" stroke-linejoin="round"/>
<path d="M21.6667 13.95L18.3333 21.7167" stroke="white" stroke-width="1.5" stroke-miterlimit="10" stroke-linecap="round" stroke-linejoin="round"/>
</svg>
