<svg width="17" height="17" viewBox="0 0 17 17" fill="none" xmlns="http://www.w3.org/2000/svg">
<path d="M15.7696 12.1572L16.0351 6.08299C16.1678 3.04589 14.7156 1.46097 11.6785 1.32822L1.80795 0.896782C1.39035 0.878529 1.03374 1.20527 1.01549 1.62287L0.584052 11.4934C0.451302 14.5305 1.90348 16.1155 4.94058 16.2482L11.0148 16.5137C14.0519 16.6465 15.6368 15.1943 15.7696 12.1572ZM4.80087 7.95781C4.61934 7.75969 4.45998 7.4028 4.4333 7.14298L4.28214 5.55407C4.2772 5.49299 4.27226 5.43192 4.27459 5.37877C4.2862 5.11302 4.38793 4.87404 4.5702 4.70704C4.79209 4.50373 5.10738 4.42623 5.43913 4.49398L7.0088 4.7832C7.2653 4.83245 7.61452 5.02268 7.78845 5.22046L10.5258 8.20804C10.3871 8.24763 10.2478 8.3024 10.093 8.36409C9.95332 8.42645 9.81366 8.48881 9.68126 8.5591C9.57231 8.6152 9.46303 8.67888 9.38444 8.73631C9.26723 8.80726 9.16521 8.87887 9.10974 8.9297C9.06285 8.95808 9.03115 8.98712 9.01564 8.99405C8.81852 9.15279 8.62866 9.31946 8.48469 9.48053C8.43714 9.52409 8.41303 9.55347 8.40511 9.56073C8.32487 9.65612 8.23736 9.74358 8.18023 9.83237C8.09999 9.92775 8.02701 10.0311 7.96162 10.1347C7.88005 10.2605 7.79815 10.3938 7.72351 10.5351C7.64887 10.6764 7.58975 10.8107 7.53822 10.9454L4.80087 7.95781ZM8.74319 12.2685L8.17684 11.6504C8.14054 11.6107 8.12008 11.5566 8.12241 11.5034C8.12307 11.4883 8.1244 11.4579 8.13265 11.443C8.56178 10.1533 9.64745 9.1586 10.9697 8.84363C11.039 8.82384 11.1139 8.84994 11.1648 8.90541L11.7384 9.53146C12.675 10.5537 12.6118 11.4791 11.6133 12.3939C11.1061 12.8586 10.6247 13.081 10.1391 13.0522C9.66076 13.0313 9.20789 12.7757 8.74319 12.2685Z" fill="#131E47"/>
</svg>
