<svg width="100" height="100" viewBox="0 0 100 100" fill="none" xmlns="http://www.w3.org/2000/svg">
<path d="M50 6.25C25.8398 6.25 6.25 25.8398 6.25 50C6.25 74.1602 25.8398 93.75 50 93.75C74.1602 93.75 93.75 74.1602 93.75 50C93.75 25.8398 74.1602 6.25 50 6.25ZM50 86.3281C29.9414 86.3281 13.6719 70.0586 13.6719 50C13.6719 29.9414 29.9414 13.6719 50 13.6719C70.0586 13.6719 86.3281 29.9414 86.3281 50C86.3281 70.0586 70.0586 86.3281 50 86.3281Z" fill="white"/>
<path d="M70.2539 48.7399L41.3379 27.7438C41.106 27.5738 40.8314 27.4715 40.5448 27.4484C40.2582 27.4253 39.9708 27.4822 39.7146 27.6128C39.4584 27.7434 39.2436 27.9426 39.0939 28.1882C38.9443 28.4337 38.8658 28.716 38.8672 29.0035V70.9957C38.8672 72.275 40.3125 72.9977 41.3379 72.2555L70.2539 51.2594C70.4536 51.1156 70.6162 50.9263 70.7283 50.7073C70.8404 50.4883 70.8989 50.2457 70.8989 49.9996C70.8989 49.7536 70.8404 49.511 70.7283 49.292C70.6162 49.073 70.4536 48.8837 70.2539 48.7399ZM45.0977 61.8258V38.1735L61.377 49.9996L45.0977 61.8258Z" fill="white"/>
</svg>
